# xmcd
#
# Track frame offsets: 
#        150
#        12915
#        24830
#        36118
#        45551
#        55450
#        65808
#        76300
#        88720
#        101653
#        114248
#        124228
#        135619
#        144991
#        159361
#        170194
#        179334
#        189858
#
# Disc length: 2654 seconds
#
# Revision: 0
# Processed by: cddbd v1.5.2PL0 Copyright (c) Steve Scherf et al.
# Submitted via: ExactAudioCopy v0.95b4
#
DISCID=ed0a5c12
DTITLE=Jim Reeves - Distant Drums - The Collection [CD1)
DYEAR=2007
DGENRE=Easy Listening
TTITLE0=Four Walls
TTITLE1=Am I Losing You?
TTITLE2=Anna Marie
TTITLE3=Billy Bayou
TTITLE4=Blue Boy
TTITLE5=I'm Gettin' Better
TTITLE6=He'll Have To Go
TTITLE7=I Love You Because
TTITLE8=Distant Drums
TTITLE9=This World Is Not My Home
TTITLE10=I Won't Come In While He's There
TTITLE11=Adios Amigo
TTITLE12=I'm Gonna Change Everything
TTITLE13=Guilty
TTITLE14=Welcome To My World
TTITLE15=I Won't Forget You
TTITLE16=You're The Only Good Thing (That's Happened To Me)
TTITLE17=There's A Heartache Follwing Me
EXTD=
EXTT0=
EXTT1=
EXTT2=
EXTT3=
EXTT4=
EXTT5=
EXTT6=
EXTT7=
EXTT8=
EXTT9=
EXTT10=
EXTT11=
EXTT12=
EXTT13=
EXTT14=
EXTT15=
EXTT16=
EXTT17=
PLAYORDER=
